<svg width="93" height="92" viewBox="0 0 93 92" fill="none" xmlns="http://www.w3.org/2000/svg">
<path d="M93 11.5025C91.9029 12.6477 90.8251 13.8097 89.7062 14.9334C87.6863 16.9597 85.6228 18.9404 83.6174 20.9811C82.6293 21.9871 81.4934 22.3712 80.0959 22.2272C78.7203 22.0831 77.3325 22.0375 75.8091 21.9391C76.0392 22.256 76.1821 22.4721 76.3419 22.6713C83.3437 31.3216 86.5116 41.2012 85.8771 52.2427C84.7654 71.5817 69.9044 88.042 50.6137 91.3143C37.93 93.4655 26.496 90.534 16.29 82.8153C15.2776 82.0494 15.1541 81.029 16.0017 80.4312C16.6847 79.9487 17.266 80.2224 17.9078 80.6281C20.4993 82.2703 23.0036 84.1093 25.7597 85.4298C45.7988 95.0381 70.5341 86.2653 79.488 66.0957C86.3833 50.5669 84.0146 36.0825 73.0844 22.9954C72.8931 22.7674 72.6727 22.5609 72.5249 22.4072C70.4614 24.448 68.4197 26.4647 66.4919 28.3686C67.9378 30.5437 69.5508 32.6829 70.8514 34.9925C73.2903 39.3285 74.448 44.0438 74.4988 49.016C74.5085 49.9739 74.075 50.5573 73.3121 50.651C72.4353 50.759 71.9025 50.0771 71.7596 48.9607C71.4423 46.5047 71.234 44.0126 70.6261 41.6237C69.546 37.379 67.3275 33.6817 64.4405 30.5077C62.4109 32.5269 60.3959 34.5316 58.3154 36.6011C62.3794 41.4653 63.9658 47.2345 62.6192 53.6712C61.5826 58.617 58.8991 62.5976 54.7697 65.5771C46.5327 71.5168 35.0503 70.3692 28.2083 62.953C21.2089 55.3686 21.0805 44.1086 27.9225 36.3418C34.7936 28.5414 47.3368 26.9929 56.1187 34.3779C58.1459 32.3756 60.1682 30.3757 62.2365 28.3302C59.9793 26.275 57.3854 24.604 54.5081 23.3748C37.6708 16.1842 18.6683 25.8813 14.7666 43.6404C11.3831 59.0444 21.8749 74.6356 37.5303 77.4734C52.9387 80.268 67.4146 70.919 71.0693 55.8152C71.1057 55.6688 71.1469 55.5271 71.188 55.383C71.4447 54.4995 72.0575 54.0914 72.8592 54.2691C73.6221 54.4371 74.0096 55.131 73.8182 56.0193C73.0456 59.6254 71.7208 63.0274 69.6574 66.0957C63.1012 75.8432 53.876 80.7914 42.0352 80.6617C27.5132 80.5033 14.4832 69.4017 11.9837 55.2462C8.9975 38.3129 19.4675 22.6257 36.4574 18.9956C46.4068 16.8708 55.4067 19.2717 63.2973 25.658C63.6001 25.9029 63.8956 26.1598 64.099 26.3326C66.1601 24.2871 68.2018 22.2632 70.3864 20.0952C68.645 18.8107 66.8164 17.2838 64.8159 16.0209C56.5208 10.7847 47.4458 8.73913 37.6854 10.0356C20.5719 12.3068 6.83955 24.9161 3.54572 41.6141C1.0487 54.2835 4.16815 65.6419 12.5553 75.5551C12.7491 75.7856 12.9646 75.9968 13.1511 76.2345C13.6839 76.9164 13.6573 77.6654 13.1003 78.172C12.5093 78.7074 11.681 78.681 11.1046 77.9799C9.78705 76.381 8.42834 74.7988 7.26581 73.0918C3.08797 66.9624 0.726581 60.1872 0.15016 52.8093C0.130785 52.5764 0.0508607 52.346 0 52.1155C0 50.3172 0 48.5214 0 46.7231C0.0532826 46.4615 0.130785 46.2046 0.157426 45.9405C1.26667 34.0874 6.40845 24.2727 15.6457 16.686C30.3517 4.60965 51.2845 3.68772 67.0925 14.2731C68.3326 15.1038 69.5145 16.0233 70.8271 16.9765C70.7303 15.4928 70.6843 14.1219 70.5389 12.763C70.3912 11.3801 70.7787 10.2613 71.7959 9.28173C74.029 7.13056 76.2087 4.92176 78.4248 2.75379C79.3863 1.81265 80.3914 0.914728 81.3747 0C81.7985 0 82.2224 0 82.6462 0C83.7652 0.58581 84.0921 1.55096 84.1042 2.74178C84.1163 3.97823 84.2471 5.21467 84.3416 6.72241C85.4968 5.56039 86.4656 4.55203 87.4707 3.58448C88.0762 3.00108 88.8803 3.01548 89.4155 3.54367C89.9483 4.07186 89.9605 4.85934 89.3792 5.46916C88.5727 6.31666 87.7202 7.12095 86.8943 7.94925C86.7248 8.11731 86.5843 8.31178 86.3566 8.58068C87.7904 8.66711 89.0547 8.79435 90.3189 8.80636C91.5008 8.81836 92.4187 9.19289 92.9976 10.2469C93 10.6622 93 11.0824 93 11.5025ZM50.1123 44.572C53.0114 48.9824 51.4371 53.8153 48.3322 56.2113C44.9269 58.8403 40.1896 58.629 37.0314 55.6952C33.9677 52.8477 33.4421 48.1685 35.7987 44.704C38.4652 40.7858 42.8271 39.9863 47.9786 42.416C50.03 40.3897 52.0571 38.385 54.0843 36.3826C48.8578 31.4801 38.4022 30.198 31.1074 36.9468C23.9893 43.5348 23.7519 54.622 30.5721 61.4956C37.3947 68.3693 48.5574 68.4077 55.3292 61.5701C62.44 54.3915 61.3283 43.9093 56.2422 38.5026C54.2199 40.5073 52.1928 42.512 50.1123 44.572ZM47.9786 46.4062C46.6271 47.7555 45.3459 49.0592 44.0357 50.334C43.3648 50.9871 42.597 50.9967 42.0255 50.4301C41.4539 49.8635 41.4708 49.1096 42.1248 48.4422C43.1129 47.4314 44.1301 46.4495 45.1328 45.4531C45.438 45.1506 45.7383 44.8409 46.0604 44.5168C43.4447 42.9562 40.1775 43.5492 38.3538 45.8204C36.472 48.1637 36.6439 51.4696 38.7559 53.5944C40.8726 55.724 44.2125 55.9473 46.6029 54.1202C48.9716 52.3099 49.6037 49.076 47.9786 46.4062ZM73.593 17.3054C76.3201 14.6068 78.8874 12.0667 81.4449 9.51941C81.583 9.38256 81.7331 9.16649 81.7259 8.99602C81.6411 7.27701 81.5273 5.55799 81.4183 3.81737C81.2512 3.86298 81.1809 3.86058 81.1446 3.8942C78.6137 6.38629 76.0803 8.87838 73.5664 11.3897C73.3774 11.5769 73.2394 11.9179 73.2515 12.1796C73.3339 13.817 73.4622 15.4519 73.593 17.3054ZM89.2072 11.673C89.1661 11.601 89.1225 11.5289 89.0813 11.4569C87.4271 11.3513 85.7729 11.224 84.1163 11.1664C83.816 11.1568 83.443 11.3801 83.2105 11.6058C80.8249 13.9346 78.4611 16.285 76.0949 18.6331C75.9399 18.7867 75.8163 18.9716 75.6226 19.2093C77.3373 19.3269 78.931 19.4734 80.5294 19.5166C80.9169 19.5286 81.4013 19.2957 81.692 19.022C83.133 17.6607 84.5208 16.2466 85.9352 14.8565C87.0202 13.7905 88.1174 12.7342 89.2072 11.673Z" fill="white"/>
</svg>
