<svg width="93" height="92" viewBox="0 0 93 92" fill="none" xmlns="http://www.w3.org/2000/svg">
<path d="M92.9852 31.6694C92.5314 32.3703 91.8878 32.583 91.069 32.5637C89.2393 32.5202 87.4072 32.5371 85.5774 32.554C83.9782 32.5709 82.7344 31.9812 81.8771 30.5841C81.7403 30.3617 81.3729 30.1659 81.1088 30.1611C79.3078 30.1248 77.5045 30.0934 75.7084 30.1756C75.1225 30.2022 74.467 30.456 73.9891 30.804C72.3875 31.9715 70.8579 33.2381 69.2875 34.4491C68.5888 34.9881 68.2766 35.6673 68.2862 36.5544C68.3102 38.4832 68.327 40.4145 68.2814 42.3434C68.2094 45.3648 66.0099 47.7747 63.0852 48.1058C60.3021 48.4224 57.6152 46.583 56.8948 43.813C56.7219 43.1507 56.6763 42.4425 56.6715 41.756C56.6475 39.102 56.6643 36.448 56.6595 33.794C56.6571 32.3824 56.2969 32.0174 54.9162 32.015C52.6062 32.0102 50.2938 32.0198 47.9839 32.0126C46.9057 32.0102 46.3126 31.534 46.2982 30.688C46.2814 29.8033 46.8793 29.3175 48.0175 29.3151C50.4187 29.3102 52.8199 29.3054 55.2212 29.3151C57.6824 29.3247 59.3272 30.9708 59.3441 33.4629C59.3633 36.3586 59.3224 39.2543 59.3585 42.1476C59.3873 44.5212 61.5316 46.0416 63.6206 45.2149C64.8429 44.7315 65.5944 43.6003 65.6064 42.1573C65.6233 40.2888 65.6281 38.418 65.6064 36.5471C65.5848 34.7899 66.2644 33.3976 67.6403 32.3268C69.2299 31.0892 70.8123 29.8444 72.3947 28.5972C73.3744 27.8261 74.4718 27.4346 75.7276 27.4515C77.5838 27.4756 79.4423 27.4587 81.3777 27.4587C81.3777 20.5167 81.3777 13.6352 81.3777 6.61345C80.1891 6.61345 78.9957 6.69079 77.8167 6.58444C77.1131 6.51918 76.2943 6.34031 75.7684 5.91248C72.8773 3.56787 69.6405 2.60827 65.921 2.67353C58.6309 2.80164 51.336 2.70737 44.0435 2.71462C42.1897 2.71704 41.0347 4.23258 41.6518 5.82305C41.9712 6.64487 42.5667 7.15488 43.448 7.27574C43.8321 7.32891 44.2259 7.31683 44.6149 7.341C45.513 7.39901 46.0221 7.86552 46.0413 8.64383C46.0605 9.4584 45.5394 9.97083 44.5957 10.0168C43.9666 10.0482 43.3351 10.0192 42.706 10.0288C41.0948 10.0554 40.0502 10.9739 40.0622 12.3541C40.0718 13.7367 41.1188 14.6407 42.7324 14.6528C43.3327 14.6576 43.933 14.6383 44.5333 14.6576C45.4386 14.6866 46.0125 15.2305 45.9981 16.0233C45.9836 16.7775 45.4314 17.3237 44.5765 17.3455C43.4359 17.3745 42.2954 17.3455 41.1548 17.3576C39.6756 17.3745 38.6575 18.2882 38.6287 19.6103C38.5975 20.9228 39.594 21.9066 41.0611 21.9598C42.0504 21.996 43.0421 21.9646 44.0315 21.9743C45.1768 21.9839 45.7963 22.4601 45.8012 23.3206C45.806 24.1763 45.1816 24.6669 44.0459 24.6669C37.5337 24.6718 31.0216 24.6669 24.5095 24.6718C24.0917 24.6718 23.6667 24.6766 23.2537 24.7443C22.1035 24.9304 21.3207 25.8683 21.3231 27.0043C21.3255 28.1694 22.1707 29.1338 23.3473 29.2885C23.6715 29.332 24.0052 29.3151 24.3366 29.3151C29.9795 29.3175 35.62 29.3151 41.2628 29.3175C41.563 29.3175 41.952 29.216 42.1441 29.3658C42.5571 29.6897 43.1166 30.1272 43.1526 30.5551C43.1886 30.9781 42.7012 31.4977 42.3434 31.8772C42.1849 32.0464 41.7767 32.0102 41.4838 32.0102C35.5719 32.0174 29.6601 32.0295 23.7459 32.0078C21.5608 32.0005 19.9232 30.9829 19.0491 28.9646C18.2183 27.0502 18.5569 25.2326 19.9184 23.659C20.9701 22.4432 22.3556 21.9839 23.9404 21.9912C27.7511 22.0105 31.5643 21.996 35.375 21.996C35.6992 21.996 36.021 21.996 36.4532 21.996C35.4183 19.2695 36.021 17.0748 38.3213 15.3513C37.5986 14.1162 37.1784 12.8424 37.4737 11.3945C37.7691 9.95149 38.5903 8.89521 39.7573 8.02746C39.0465 6.86241 38.6383 5.65385 38.8544 4.30509C39.2746 1.70668 41.3157 0.00986187 44.0555 0.00502762C51.7994 -0.00464088 59.541 0.0026105 67.2849 0.0026105C69.5685 0.0026105 71.7656 0.432859 73.8018 1.48189C74.8103 2.00157 75.7684 2.63969 76.6857 3.31165C77.2764 3.74432 77.8503 4.00295 78.5851 3.9256C79.0005 3.88209 79.4279 3.88693 79.8433 3.92319C80.9263 4.02229 81.8051 3.92319 82.4558 2.78472C83.0009 1.83237 84.1103 1.5254 85.2076 1.51331C87.2775 1.49156 89.3521 1.44805 91.4172 1.54232C91.9551 1.56649 92.4713 2.06683 92.9996 2.34722C92.9996 2.64936 92.9996 2.9515 92.9996 3.25123C92.6226 3.97153 92.0319 4.22049 91.2251 4.20116C89.3377 4.16006 87.4504 4.1794 85.563 4.19149C84.4921 4.19874 84.1511 4.5323 84.1487 5.58375C84.1439 13.2001 84.1439 20.8189 84.1487 28.4352C84.1487 29.5036 84.4825 29.8348 85.5438 29.842C87.4312 29.8517 89.3209 29.8759 91.2059 29.8299C92.0127 29.8106 92.5938 30.0692 92.9996 30.7557C92.9852 31.0675 92.9852 31.3696 92.9852 31.6694Z" fill="white"/>
<path d="M0.00240207 88.6385C0.379528 87.9134 0.970438 87.6693 1.77994 87.6887C3.64154 87.7322 5.50315 87.708 7.36476 87.7007C8.54177 87.6959 8.85404 87.3769 8.85885 86.1975C8.86365 83.9353 8.86125 81.6731 8.86125 79.4133C8.86125 79.1716 8.84684 78.9275 8.88046 78.6906C8.98616 77.9052 9.55545 77.3976 10.2713 77.429C10.9871 77.4605 11.5275 77.9994 11.5372 78.8018C11.5612 80.5806 11.5468 82.3595 11.5492 84.1383C11.5492 84.467 11.5492 84.7933 11.5492 85.2815C12.7334 85.2815 13.86 85.325 14.9817 85.2694C15.9354 85.221 16.728 85.47 17.4631 86.0911C20.1846 88.3896 23.3265 89.2693 26.8816 89.2185C34.2368 89.1122 41.5943 89.1895 48.9495 89.1823C50.8447 89.1799 52.0193 87.6113 51.3419 86.0065C50.984 85.1582 50.333 84.6748 49.4131 84.5951C48.9951 84.5588 48.5723 84.5782 48.1568 84.525C47.3833 84.4283 46.9701 83.9594 46.9846 83.1812C46.9966 82.4465 47.4001 81.9776 48.1327 81.9123C48.8486 81.8495 49.5716 81.8761 50.2922 81.864C51.916 81.8374 52.9561 80.9408 52.9609 79.5607C52.9657 78.1759 51.916 77.255 50.3114 77.2405C49.6821 77.2357 49.0503 77.2574 48.421 77.2333C47.5779 77.1994 47.023 76.6484 47.0254 75.8919C47.0254 75.1354 47.5755 74.5747 48.4234 74.5505C49.5644 74.5191 50.7054 74.5505 51.8464 74.5385C53.3693 74.5215 54.4094 73.5669 54.3974 72.2158C54.3853 70.9035 53.3885 69.9778 51.892 69.9343C50.8711 69.9053 49.8502 69.9391 48.8293 69.9222C47.8253 69.9029 47.2368 69.405 47.2176 68.5978C47.1983 67.764 47.8109 67.2347 48.863 67.2347C55.4086 67.2274 61.9543 67.2323 68.4999 67.2274C68.9179 67.2274 69.3431 67.2226 69.7562 67.1573C70.9501 66.9664 71.7427 65.9972 71.7067 64.825C71.6707 63.6649 70.7963 62.732 69.6097 62.6088C69.283 62.5749 68.9491 62.5894 68.62 62.5894C58.4425 62.5894 48.2625 62.5894 38.0849 62.5894C35.2432 62.5894 33.6699 61.0281 33.6627 58.1931C33.6555 55.3582 33.6795 52.5232 33.6506 49.6882C33.6362 48.2066 32.8171 47.09 31.5224 46.6453C30.2853 46.2175 28.8801 46.5462 28.1427 47.6483C27.7319 48.2598 27.4677 49.0743 27.4269 49.8114C27.3284 51.6748 27.3836 53.5503 27.3956 55.4186C27.4077 57.1394 26.7255 58.5073 25.3827 59.5587C23.819 60.7816 22.2504 61.9949 20.7011 63.2347C19.673 64.0565 18.5296 64.4698 17.2085 64.4504C15.3565 64.4238 13.5021 64.4432 11.5492 64.4432C11.5492 65.9851 11.5492 67.4232 11.5492 68.8636C11.5492 70.1011 11.5516 71.3361 11.5492 72.5735C11.5444 73.7481 11.1024 74.3451 10.2376 74.3572C9.33686 74.3693 8.86365 73.753 8.86125 72.5276C8.85644 69.5718 8.86125 66.616 8.85885 63.6625C8.85644 62.3381 8.58501 62.0601 7.2951 62.0553C5.46472 62.0505 3.63194 62.0215 1.80156 62.0698C0.994458 62.0891 0.408352 61.8354 0.00480415 61.1442C0.00480415 60.842 0.00480415 60.5399 0.00480415 60.2402C0.453992 59.5321 1.10255 59.3267 1.92166 59.346C3.75204 59.3871 5.58482 59.375 7.4152 59.3557C9.01498 59.3387 10.2593 59.9309 11.1168 61.3254C11.2537 61.5478 11.6212 61.7435 11.8855 61.7484C13.687 61.7846 15.491 61.816 17.2877 61.7339C17.8738 61.7073 18.5272 61.4535 19.0076 61.1031C20.5882 59.955 22.0943 58.7079 23.6436 57.5164C24.3642 56.963 24.7221 56.2766 24.7101 55.3485C24.6837 53.3884 24.6621 51.4259 24.7197 49.4682C24.8086 46.5051 27.0329 44.1149 29.9154 43.7983C32.7162 43.4913 35.3849 45.316 36.1056 48.093C36.2785 48.7553 36.3242 49.4634 36.3314 50.1498C36.3554 52.7721 36.3386 55.3968 36.3434 58.0216C36.3458 59.5514 36.6773 59.8874 38.181 59.8898C48.5099 59.8922 58.8388 59.885 69.1677 59.8946C72.0598 59.897 74.2745 61.9369 74.3946 64.6655C74.5243 67.6069 72.2976 69.8787 69.1965 69.9029C65.3532 69.9319 61.5099 69.9102 57.6666 69.9102C57.3399 69.9102 57.0156 69.9102 56.5736 69.9102C57.6089 72.6219 57.0036 74.8164 54.712 76.5469C55.411 77.7771 55.8458 79.0483 55.5504 80.4961C55.2549 81.9389 54.4478 83.0048 53.2612 83.8748C53.965 85.0325 54.3829 86.2385 54.1644 87.5847C53.7488 90.1587 51.7286 91.8868 49.0599 91.894C43.0548 91.9109 37.0496 91.9085 31.0444 91.894C28.7048 91.8892 26.358 91.9182 24.0255 91.7756C21.2559 91.6064 18.7914 90.5067 16.6151 88.8053C15.8369 88.1962 15.0514 87.853 14.0641 87.9763C13.651 88.027 13.221 88.0246 12.8055 87.9763C11.8783 87.8699 11.2201 88.073 10.6748 88.9793C10.0479 90.0185 8.90689 90.3835 7.70585 90.3907C5.66409 90.4052 3.61992 90.4536 1.58297 90.3569C1.0449 90.3327 0.526054 89.8324 0 89.5521C0.00240207 89.2403 0.00240207 88.9382 0.00240207 88.6385Z" fill="white"/>
<path d="M4.37695 46.7715C4.50757 29.2121 15.6705 13.7452 32.4741 7.93257C32.5878 7.89205 32.7039 7.85869 32.8176 7.82294C33.8746 7.47261 34.6075 7.6871 34.9026 8.42827C35.234 9.26477 34.8107 9.94636 33.6787 10.3396C23.343 13.9287 15.743 20.573 10.9634 30.2512C7.09572 38.0824 6.25881 46.3211 7.95683 54.8434C8.05358 55.3343 8.07293 55.9706 7.82863 56.3567C7.62061 56.6856 6.9264 56.9692 6.54665 56.8762C6.12093 56.7737 5.57911 56.2804 5.47994 55.8657C5.11953 54.3667 4.86072 52.8367 4.67931 51.3067C4.50273 49.8029 4.47129 48.2848 4.37695 46.7715Z" fill="white"/>
<path d="M47.8737 53.3987C47.7687 55.2014 47.4204 55.7927 46.5067 55.7999C45.6216 55.8071 45.3114 55.2899 45.0848 53.3987C42.3722 52.6661 40.5138 51.0118 39.6955 48.2419C39.6382 48.048 39.2207 47.9403 38.9559 47.8325C38.4788 47.6434 37.8609 47.6123 37.5317 47.2843C36.8374 46.5948 37.3002 45.4074 38.276 45.2183C38.6816 45.1392 39.1038 45.1536 39.5834 45.1201C40.3468 42.2496 42.1337 40.3536 45.1277 39.5923C45.2041 38.5844 44.9583 37.294 46.5329 37.203C47.4228 37.1504 47.7472 37.768 47.8784 39.4989C48.6347 39.8365 49.422 40.1118 50.1282 40.5236C51.5429 41.3447 52.5616 42.5537 53.0507 44.1194C53.2868 44.8759 53.5612 45.2326 54.4344 45.2063C55.4865 45.1728 56.1449 46.2285 55.6081 47.0449C55.3505 47.4375 54.7206 47.7392 54.234 47.787C53.6018 47.8469 53.3465 48.0193 53.1413 48.6417C52.3015 51.1914 50.4813 52.7283 47.8737 53.3987ZM46.5329 42.1683C44.1448 42.1563 42.1933 44.0571 42.1528 46.4368C42.1122 48.7973 44.0542 50.7892 46.4208 50.8179C48.8518 50.8466 50.8367 48.9122 50.8463 46.5038C50.8534 44.1361 48.9091 42.1802 46.5329 42.1683Z" fill="white"/>
<path d="M57.877 86.4353C57.5672 86.1083 56.9862 85.7669 56.907 85.3325C56.8253 84.8932 57.1615 84.3084 57.464 83.893C57.6393 83.6519 58.1051 83.6185 58.4412 83.4991C71.2315 78.9515 79.6543 70.2502 83.6616 57.357C83.7241 57.1589 83.7697 56.9536 83.8441 56.7602C84.1298 56.025 84.7853 55.6621 85.4744 55.8483C86.1659 56.0369 86.5717 56.6814 86.394 57.4525C86.2139 58.2331 85.9906 59.0089 85.7193 59.7633C81.0805 72.7735 72.2015 81.5631 59.0559 86.0892C58.7485 86.1942 58.4292 86.273 57.877 86.4353Z" fill="white"/>
<path d="M80.9647 46.9022C80.7868 51.5024 79.9264 55.9173 78.1813 60.1614C77.8644 60.9322 77.3989 61.3932 76.5263 61.2419C75.6367 61.0883 75.3003 60.259 75.6026 59.2443C76.3021 56.8929 77.1454 54.5611 77.5988 52.161C78.6566 46.5412 78.0326 41.0238 76.0559 35.6601C75.9414 35.3455 75.8098 35.0381 75.7074 34.721C75.4466 33.9137 75.761 33.1771 76.4605 32.9185C77.1868 32.6526 77.9546 32.9478 78.2252 33.7649C78.9027 35.8089 79.651 37.848 80.08 39.9481C80.5455 42.2312 80.6844 44.5825 80.9647 46.9022Z" fill="white"/>
<path d="M12.0352 46.5209C12.1245 41.7526 13.0414 37.1778 14.9787 32.8322C15.1692 32.4072 15.5313 31.9034 15.9239 31.7721C16.3001 31.6455 17.0172 31.8127 17.2288 32.1087C17.4968 32.486 17.5767 33.1784 17.4404 33.644C16.8643 35.6043 16.0367 37.4978 15.5618 39.4796C14.1794 45.2267 14.5109 50.9309 16.3236 56.5492C16.3965 56.776 16.4952 56.9933 16.5563 57.2225C16.7797 58.0439 16.474 58.7483 15.7993 58.9918C15.061 59.2592 14.3087 58.9297 14.083 58.0606C13.4693 55.7087 12.8604 53.3497 12.409 50.9644C12.1339 49.5127 12.1504 48.0036 12.0352 46.5209Z" fill="white"/>
<path d="M87.5284 47.2229C87.4492 48.8433 87.3898 50.4637 87.2808 52.0816C87.2115 53.109 86.6964 53.6943 86.0426 53.6023C85.4106 53.5154 85.054 52.879 85.0777 51.8771C85.0817 51.7186 85.0976 51.5602 85.0976 51.3991C85.0956 48.5392 85.1887 45.6715 85.0559 42.8218C84.9648 40.8666 84.5686 38.9344 84.2853 36.9996C84.1367 35.9798 84.414 35.231 85.0619 35.0521C85.7295 34.8655 86.2328 35.3306 86.4348 36.3555C87.1421 39.9158 87.4948 43.54 87.5284 47.2229Z" fill="white"/>
<path d="M66.7405 73.9402C66.5915 74.1258 66.3588 74.6309 65.964 74.868C64.4346 75.7881 62.8685 76.6541 61.2842 77.4763C60.4188 77.9247 59.5848 77.6103 59.224 76.8345C58.8789 76.0974 59.1717 75.3783 60.0057 74.9144C61.4829 74.0949 62.9574 73.2727 64.4398 72.4583C65.5823 71.8294 66.764 72.4325 66.7405 73.9402Z" fill="white"/>
<path d="M32.8232 18.0034C32.6019 18.1993 32.2542 18.6582 31.7752 18.8898C30.9606 19.284 30.185 20.0524 29.1127 19.5023C28.2738 19.0724 28.2106 17.9967 29.0227 17.4822C29.6403 17.0902 30.3212 16.7583 31.019 16.5022C31.9405 16.1659 32.8499 16.7895 32.8232 18.0034Z" fill="white"/>
</svg>
